<svg width="32" height="32" viewBox="0 0 32 32" fill="none" xmlns="http://www.w3.org/2000/svg">
<path d="M23 10H7C5.89543 10 5 10.9594 5 12.1429V22.8571C5 24.0406 5.89543 25 7 25H23C24.1046 25 25 24.0406 25 22.8571V12.1429C25 10.9594 24.1046 10 23 10Z" stroke="#9E9E9E" stroke-width="1.5" stroke-linecap="round" stroke-linejoin="round"/>
<path d="M19 12V6.66667C19 6.48986 18.7893 6.32029 18.4142 6.19526C18.0391 6.07024 17.5304 6 17 6H13C12.4696 6 11.9609 6.07024 11.5858 6.19526C11.2107 6.32029 11 6.48986 11 6.66667V12" stroke="#9E9E9E" stroke-width="1.5" stroke-linecap="round" stroke-linejoin="round"/>
</svg>
