<svg width="32" height="32" viewBox="0 0 32 32" fill="none" xmlns="http://www.w3.org/2000/svg">
<path d="M7 9.02982V23.746V25.7758C7 26.1818 7.33333 25.945 7.5 25.7758L11 22.2237C11.4 21.8177 11.8333 21.7162 12 21.7162H24C25.6 21.7162 26 20.363 26 19.6864V9.02982C26 7.40596 24.6667 7 24 7H9C7.4 7 7 8.35321 7 9.02982Z" stroke="#9E9E9E" stroke-width="1.5"/>
<path d="M13.5 14.5C13.5 15.0523 13.0523 15.5 12.5 15.5C11.9477 15.5 11.5 15.0523 11.5 14.5C11.5 13.9477 11.9477 13.5 12.5 13.5C13.0523 13.5 13.5 13.9477 13.5 14.5Z" fill="#9E9E9E"/>
<path d="M17.5 14.5C17.5 15.0523 17.0523 15.5 16.5 15.5C15.9477 15.5 15.5 15.0523 15.5 14.5C15.5 13.9477 15.9477 13.5 16.5 13.5C17.0523 13.5 17.5 13.9477 17.5 14.5Z" fill="#9E9E9E"/>
<path d="M21.5 14.5C21.5 15.0523 21.0523 15.5 20.5 15.5C19.9477 15.5 19.5 15.0523 19.5 14.5C19.5 13.9477 19.9477 13.5 20.5 13.5C21.0523 13.5 21.5 13.9477 21.5 14.5Z" fill="#9E9E9E"/>
</svg>
