<svg width="32" height="30" viewBox="0 0 32 30" fill="none" xmlns="http://www.w3.org/2000/svg">
<path d="M7 9.25714L26 9.25714M7 6L26 6M9.17159 12.5143H14.0573C14.4192 12.5143 15.143 12.7314 15.143 13.6V21.2C15.143 21.5619 14.9259 22.2857 14.0573 22.2857H9.17159C8.80968 22.2857 8.08587 22.0686 8.08587 21.2V13.6C8.08587 13.2381 8.30301 12.5143 9.17159 12.5143ZM18.9431 12.5143H23.8288C24.1907 12.5143 24.9145 12.7314 24.9145 13.6V21.2C24.9145 21.5619 24.6973 22.2857 23.8288 22.2857H18.9431C18.5811 22.2857 17.8573 22.0686 17.8573 21.2V13.6C17.8573 13.2381 18.0745 12.5143 18.9431 12.5143Z" stroke="#9E9E9E" stroke-width="1.5"/>
</svg>
