<svg width="32" height="30" viewBox="0 0 32 30" fill="none" xmlns="http://www.w3.org/2000/svg">
<path d="M5 14.1735L15.4815 4.24368C15.6654 4.05979 16.1435 3.80235 16.5848 4.24368C17.0261 4.685 23.3886 11.0474 26.5146 14.1735" stroke="#9E9E9E" stroke-width="1.5"/>
<path d="M8.86182 10.3119V21.8967C8.86182 22.2645 9.08248 23 9.96513 23C10.8478 23 18.4239 23 22.1016 23C22.4693 23 23.2049 22.7793 23.2049 21.8967C23.2049 21.014 23.2049 13.6218 23.2049 10.8635" stroke="#9E9E9E" stroke-width="1.5"/>
<path d="M14.93 13.0702C14.0473 13.0702 13.8267 13.8057 13.8267 14.1735V16.3801C13.8267 17.2628 14.5622 17.4834 14.93 17.4834H17.1366C18.0193 17.4834 18.2399 16.7479 18.2399 16.3801V14.1735C18.2399 13.2909 17.5044 13.0702 17.1366 13.0702H14.93Z" stroke="#9E9E9E" stroke-width="1.5"/>
</svg>
