<svg width="32" height="32" viewBox="0 0 32 32" fill="none" xmlns="http://www.w3.org/2000/svg">
<path d="M15.7556 6C17.8741 6 22.5022 6.11875 24.0667 6.59375C26.0222 7.1875 27 9.5625 27 14.9062V16.0938C27 21.4375 26.0222 23.8125 24.0667 24.4062C22.5022 24.8812 17.8741 25 15.7556 25M16.2444 6C14.1259 6 9.49778 6.11875 7.93333 6.59375C5.97778 7.1875 5 9.5625 5 14.9062V16.0938C5 21.4375 5.97778 23.8125 7.93333 24.4062C9.49778 24.8812 14.1259 25 16.2444 25" stroke="#9E9E9E" stroke-width="1.5"/>
<path d="M13 19.2959V12.1181C13 10.793 13.6466 11.0138 13.9699 11.0138C16.3939 12.6698 18.3333 13.774 19.3033 14.3262L19.304 14.3267C20.2855 14.8854 20.1769 15.9831 19.304 16.5352C17.8493 17.4555 14.7457 19.4064 13.9699 19.8481C13.194 20.2898 13 19.664 13 19.2959Z" stroke="#9E9E9E" stroke-width="1.5"/>
</svg>
