<svg width="15" height="15" viewBox="0 0 15 15" fill="none" xmlns="http://www.w3.org/2000/svg">
<path d="M7.35556 1C8.60741 1 11.3422 1.06875 12.2667 1.34375C13.4222 1.6875 14 3.0625 14 6.15625V6.84375C14 9.9375 13.4222 11.3125 12.2667 11.6562C11.3422 11.9312 8.60741 12 7.35556 12M7.64444 1C6.39259 1 3.65778 1.06875 2.73333 1.34375C1.57778 1.6875 1 3.0625 1 6.15625V6.84375C1 9.9375 1.57778 11.3125 2.73333 11.6562C3.65778 11.9312 6.39259 12 7.64444 12" stroke="#9E9E9E" stroke-width="0.7"/>
<path d="M5 8.60885V4.62117C5 3.88498 5.46183 4.00767 5.69275 4.00767C7.42421 4.92768 8.80946 5.54108 9.50238 5.84792L9.50289 5.84814C10.2039 6.15855 10.1264 6.76837 9.50289 7.07512C8.46376 7.58637 6.24695 8.6702 5.69275 8.9156C5.13855 9.16099 5 8.81335 5 8.60885Z" stroke="#9E9E9E" stroke-width="0.7"/>
</svg>
