<svg width="32" height="32" viewBox="0 0 32 32" fill="none" xmlns="http://www.w3.org/2000/svg">
<path d="M14.8222 9C16.363 9 19.7289 9.08636 20.8667 9.43182C22.2889 9.86364 23 11.5909 23 15.4773V16.3409C23 20.2273 22.2889 21.9545 20.8667 22.3864C19.7289 22.7318 16.363 22.8182 14.8222 22.8182M15.1778 9C13.637 9 10.2711 9.08636 9.13333 9.43182C7.71111 9.86364 7 11.5909 7 15.4773V16.3409C7 20.2273 7.71111 21.9545 9.13333 22.3864C10.2711 22.7318 13.637 22.8182 15.1778 22.8182" stroke="#26282A" stroke-width="1.5"/>
<path d="M12.8184 18.6698V13.4495C12.8184 12.4858 13.2886 12.6464 13.5237 12.6464C15.2866 13.8508 16.6971 14.6538 17.4026 15.0555L17.4031 15.0557C18.1169 15.4621 18.0379 16.2604 17.4031 16.662C16.3451 17.3312 14.088 18.7501 13.5237 19.0713C12.9594 19.3926 12.8184 18.9375 12.8184 18.6698Z" stroke="#26282A" stroke-width="1.5"/>
</svg>
