<svg width="32" height="30" viewBox="0 0 32 30" fill="none" xmlns="http://www.w3.org/2000/svg">
<path d="M6 16C6 16 8.90909 10 14 10C19.0909 10 22 16 22 16C22 16 19.0909 22 14 22C8.90909 22 6 16 6 16Z" stroke="#26282A" stroke-width="1.5" stroke-linecap="round" stroke-linejoin="round"/>
<path d="M14 18C15.1046 18 16 17.1046 16 16C16 14.8954 15.1046 14 14 14C12.8954 14 12 14.8954 12 16C12 17.1046 12.8954 18 14 18Z" stroke="#26282A" stroke-width="1.5" stroke-linecap="round" stroke-linejoin="round"/>
<path d="M21.25 7C21.25 7.69036 20.6904 8.25 20 8.25V9.75C21.5188 9.75 22.75 8.51878 22.75 7H21.25ZM20 8.25C19.3096 8.25 18.75 7.69036 18.75 7H17.25C17.25 8.51878 18.4812 9.75 20 9.75V8.25ZM18.75 7C18.75 6.30964 19.3096 5.75 20 5.75V4.25C18.4812 4.25 17.25 5.48122 17.25 7H18.75ZM20 5.75C20.6904 5.75 21.25 6.30964 21.25 7H22.75C22.75 5.48122 21.5188 4.25 20 4.25V5.75Z" fill="#26282A"/>
</svg>
