<svg width="32" height="32" viewBox="0 0 32 32" fill="none" xmlns="http://www.w3.org/2000/svg">
<path fill-rule="evenodd" clip-rule="evenodd" d="M9.08123 21.5223C4.03027 18.1844 3.92736 11.2045 9.04725 7.3981L9.9422 8.60188C5.60011 11.83 5.78344 17.545 9.90822 20.2708L9.08123 21.5223ZM22.0917 20.2708C26.2165 17.545 26.3998 11.83 22.0577 8.60188L22.9526 7.3981C28.0725 11.2045 27.9696 18.1844 22.9187 21.5223L22.0917 20.2708ZM8.67144 14.1982C8.75337 12.1682 9.73667 10.149 11.4769 9.114L12.2437 10.4032C11.027 11.1268 10.2362 12.6249 10.1702 14.2587C10.1051 15.8718 10.7528 17.5071 12.2737 18.5122L11.4467 19.7636C9.41945 18.4239 8.58868 16.2489 8.67144 14.1982ZM21.8297 14.2587C21.7637 12.6249 20.9729 11.1268 19.7562 10.4032L20.523 9.114C22.2632 10.149 23.2465 12.1682 23.3285 14.1982C23.4112 16.2489 22.5804 18.4239 20.5531 19.7636L19.7261 18.5122C21.2471 17.5071 21.8948 15.8718 21.8297 14.2587ZM15.9999 11.681C14.4483 11.681 13.2017 12.9262 13.2017 14.4483C13.2017 15.9704 14.4483 17.2155 15.9999 17.2155C17.5516 17.2155 18.7982 15.9704 18.7982 14.4483C18.7982 12.9262 17.5516 11.681 15.9999 11.681ZM11.7017 14.4483C11.7017 12.0853 13.6323 10.181 15.9999 10.181C18.3676 10.181 20.2982 12.0853 20.2982 14.4483C20.2982 16.556 18.7621 18.2988 16.7499 18.6507V25H15.2499V18.6507C13.2378 18.2988 11.7017 16.556 11.7017 14.4483Z" fill="#3E3E3E"/>
</svg>
