<svg width="15" height="12" viewBox="0 0 15 12" fill="none" xmlns="http://www.w3.org/2000/svg">
<path d="M4.80924 2.13793C2.88723 3.27586 2.50283 6.68966 4.80919 8.2069M3.27161 1C0.196461 3.27586 0.289491 7.38306 3.27161 9.34483M10.1908 2.13793C12.1128 3.27586 12.4972 6.68966 10.1908 8.2069M11.7284 1C14.8035 3.27586 14.7105 7.38306 11.7284 9.34483M7.49999 7.44828C8.77377 7.44828 9.80638 6.42934 9.80638 5.17241C9.80638 3.91549 8.77377 2.89655 7.49999 2.89655C6.22622 2.89655 5.19361 3.91549 5.19361 5.17241C5.19361 6.42934 6.22622 7.44828 7.49999 7.44828ZM7.49999 7.44828V12" stroke="#9E9E9E" stroke-width="0.7"/>
</svg>
