<svg width="32" height="32" viewBox="0 0 32 32" fill="none" xmlns="http://www.w3.org/2000/svg">
<path d="M11.25 16C11.25 17.2426 10.2426 18.25 8.99995 18.25C7.75731 18.25 6.74995 17.2426 6.74995 16C6.74995 14.7574 7.75731 13.75 8.99995 13.75C10.2426 13.75 11.25 14.7574 11.25 16Z" stroke="#9E9E9E" stroke-width="1.5"/>
<path d="M24.25 10C24.25 11.2426 23.2426 12.25 22 12.25C20.7573 12.25 19.75 11.2426 19.75 10C19.75 8.75736 20.7573 7.75 22 7.75C23.2426 7.75 24.25 8.75736 24.25 10Z" stroke="#9E9E9E" stroke-width="1.5"/>
<path d="M24.25 22C24.25 23.2426 23.2426 24.25 22 24.25C20.7573 24.25 19.75 23.2426 19.75 22C19.75 20.7574 20.7573 19.75 22 19.75C23.2426 19.75 24.25 20.7574 24.25 22Z" stroke="#9E9E9E" stroke-width="1.5"/>
<path d="M11 15L20 11" stroke="#9E9E9E" stroke-width="1.5"/>
<path d="M11 17L20 21" stroke="#9E9E9E" stroke-width="1.5"/>
</svg>
