<svg width="32" height="30" viewBox="0 0 32 30" fill="none" xmlns="http://www.w3.org/2000/svg">
<path d="M20.0325 4.27145C19.8515 5.35717 19.1639 7.74574 17.861 8.61431C16.2325 9.70003 15.6896 10.7857 15.6896 12.9572C15.6896 15.1286 12.9753 18.9286 8.63248 16.2143C7.76391 15.78 7.18486 15.3095 7.00391 15.1286" stroke="#9E9E9E" stroke-width="1.5"/>
<path d="M25.4609 10.2429C23.8323 10.0619 20.1409 10.8943 20.5752 13.5C21.1181 16.7572 18.9466 16.7572 19.4895 18.3857C20.0324 20.0143 21.1181 20.5572 21.1181 22.1857" stroke="#9E9E9E" stroke-width="1.5"/>
<path d="M26 13.5C26 18.7467 21.7467 23 16.5 23C11.2533 23 6.99997 18.7467 6.99997 13.5C6.99997 8.25329 11.2533 4 16.5 4C21.7467 4 26 8.25329 26 13.5Z" stroke="#9E9E9E" stroke-width="1.5"/>
</svg>
