<svg width="196" height="51" viewBox="0 0 196 51" fill="none" xmlns="http://www.w3.org/2000/svg">
<path d="M90.9845 36.4171H82.5259C81.8813 36.4171 81.3252 35.8623 81.3252 35.2312V14.292C81.3252 13.6935 81.9004 13.1008 82.5427 13.1008H91.0818C94.7986 13.1008 97.7213 14.1368 99.8335 16.2243C101.956 18.3224 103.01 21.1779 103.01 24.7747C103.01 28.3715 101.94 31.2111 99.8012 33.2935C97.7051 35.3759 94.7662 36.4171 90.9845 36.4171ZM87.3867 18.7484V30.7695H91.2763C93.0266 30.7695 94.3664 30.1911 95.2957 29.0342C96.2465 27.8562 96.7218 26.4259 96.7218 24.7432C96.7218 23.0814 96.2465 21.6616 95.2957 20.4837C94.3664 19.3269 93.0266 18.7484 91.2763 18.7484H87.3867ZM125.014 36.4171C123.743 36.4171 122.471 36.4171 121.2 36.4171C120.63 36.4171 119.784 35.8714 119.614 35.2517L118.601 32.1577H110.984L109.962 35.2092C109.738 35.8807 108.984 36.4171 108.359 36.4171C107.082 36.4171 105.805 36.4171 104.528 36.4171C103.913 36.4171 103.518 35.8421 103.746 35.2345C106.367 28.2513 108.988 21.2681 111.609 14.2849C111.834 13.685 112.675 13.1008 113.291 13.1008C114.365 13.1008 115.439 13.1008 116.514 13.1008C117.125 13.1008 117.898 13.6597 118.133 14.3013C120.683 21.2737 123.231 28.2465 125.781 35.2191C126.006 35.8362 125.622 36.4171 125.014 36.4171ZM112.507 27.0464H117.143L114.874 20.1366L112.507 27.0464ZM147.086 36.4171C145.582 36.4171 144.077 36.4171 142.572 36.4171C141.954 36.4171 141.036 35.8297 140.713 35.2379L137.142 28.6871H134.776C134.776 30.8658 134.776 33.0447 134.776 35.2234C134.776 35.8367 134.177 36.4171 133.572 36.4171C132.358 36.4171 131.144 36.4171 129.931 36.4171C129.325 36.4171 128.714 35.8284 128.714 35.2363C128.714 28.2499 128.714 21.2635 128.714 14.2771C128.714 13.6896 129.324 13.1008 129.92 13.1008H138.698C141.572 13.1008 143.755 13.837 145.246 15.3094C146.737 16.7606 147.482 18.6012 147.482 20.8308C147.482 22.3453 147.109 23.7178 146.364 24.9482C145.618 26.1788 144.532 27.12 143.106 27.7721C144.597 30.2568 146.088 32.7414 147.578 35.2261C147.952 35.8488 147.7 36.4171 147.086 36.4171ZM138.633 18.4961H134.776V23.5442H138.406C139.616 23.6074 140.459 23.1972 140.935 22.3137C141.41 21.4302 141.41 20.5521 140.935 19.6792C140.459 18.8063 139.692 18.4119 138.633 18.4961ZM164.833 13.1008C166.392 13.1008 167.952 13.1008 169.511 13.1008C170.124 13.1008 170.402 13.6938 170.078 14.2918L162.328 28.5923C162.328 30.8068 162.328 33.0211 162.328 35.2355C162.328 35.8276 161.725 36.4171 161.113 36.4171C159.917 36.4171 158.721 36.4171 157.525 36.4171C156.888 36.4171 156.299 35.8271 156.299 35.2288V28.5923C153.746 23.8271 151.194 19.0618 148.641 14.2966C148.327 13.7098 148.606 13.1008 149.219 13.1008C150.783 13.1008 152.346 13.1008 153.91 13.1008C154.526 13.1008 155.408 13.6893 155.687 14.287L159.313 22.0297C160.56 19.4474 161.807 16.8652 163.054 14.2829C163.335 13.6997 164.228 13.1008 164.833 13.1008ZM191.727 33.3252C189.35 35.6389 186.379 36.7958 182.813 36.7958C179.248 36.7958 176.255 35.6389 173.835 33.3252C171.458 31.0113 170.269 28.1612 170.269 24.7747C170.269 21.3882 171.469 18.5276 173.867 16.1927C176.266 13.858 179.237 12.6906 182.781 12.6906C186.347 12.6906 189.329 13.858 191.727 16.1927C194.126 18.5276 195.325 21.3882 195.325 24.7747C195.325 28.1402 194.126 30.9903 191.727 33.3252ZM182.781 30.9588C184.553 30.9588 186.044 30.3698 187.254 29.192C188.464 28.0139 189.069 26.531 189.069 24.7432C189.026 22.9342 188.399 21.4513 187.189 20.2944C185.979 19.1165 184.51 18.5276 182.781 18.5276C181.031 18.5276 179.55 19.1271 178.34 20.3259C177.13 21.5039 176.525 22.9762 176.525 24.7432C176.525 26.531 177.13 28.0139 178.34 29.192C179.55 30.3698 181.031 30.9588 182.781 30.9588Z" fill="black"/>
<path fill-rule="evenodd" clip-rule="evenodd" d="M6.36175 0.638016H44.3139C58.07 0.638016 69.3252 11.8243 69.3252 25.4964C69.3252 39.1686 58.07 50.3549 44.3139 50.3549H6.36175C3.04168 50.3549 0.325195 47.655 0.325195 44.3552V6.63768C0.325195 3.33782 3.04168 0.638016 6.36175 0.638016ZM15.3601 13.2689H44.1449C50.8436 13.2689 56.3244 18.7161 56.3244 25.3739C56.3244 32.0317 50.8422 37.4789 44.1449 37.4789H32.6347C32.2911 37.4789 31.9826 37.5658 31.7091 37.7714L23.9578 43.6001C23.4744 43.9634 22.8514 43.9943 22.3076 43.7205C21.7639 43.4467 21.4195 42.9328 21.4192 42.3269L21.4185 41.0534C21.4185 39.3636 19.7989 37.4701 17.8885 37.4687C17.0647 37.4681 16.2407 37.4674 15.4168 37.4674C13.3687 37.4674 11.8009 35.9058 11.8009 33.9091L11.8007 16.85C11.8007 14.8794 13.3776 13.2689 15.3601 13.2689Z" fill="#008CCC"/>
</svg>
