<svg width="14" height="13" viewBox="0 0 14 13" fill="none" xmlns="http://www.w3.org/2000/svg">
<path d="M3.5 0V2.5M1 1V11.5C1 11.8333 1.2 12.5 2 12.5C2.8 12.5 9 12.5 12 12.5C12.3333 12.5 13 12.3 13 11.5C13 10.7 13 4.16667 13 1H1Z" stroke="#9E9E9E" stroke-width="0.7"/>
<path d="M10.5 0V2.5" stroke="#9E9E9E" stroke-width="0.7"/>
<path d="M1 4.5H13" stroke="#9E9E9E" stroke-width="0.7"/>
<path d="M3.85 6.85H4.15V7.15H3.85V6.85ZM6.85 6.85H7.15V7.15H6.85V6.85ZM9.85 6.85H10.15V7.15H9.85V6.85ZM3.85 9.85H4.15V10.15H3.85V9.85ZM6.85 9.85H7.15V10.15H6.85V9.85ZM9.85 9.85H10.15V10.15H9.85V9.85Z" stroke="#9E9E9E" stroke-width="0.7"/>
</svg>
