<svg width="304" height="50" viewBox="0 0 304 50" fill="none" xmlns="http://www.w3.org/2000/svg">
<rect width="304" height="50" fill="#039BE5"/>
<path d="M145.5 29H146.24V22.64H148.7V22H143.04V22.64H145.5V29ZM150.434 28.4V26.43H153.354V25.84H150.434V23.95H153.704V23.35H149.714V29H153.824V28.4H150.434ZM155.378 29H159.248V28.4H156.098V23.35H155.378V29ZM161.098 28.4V26.43H164.018V25.84H161.098V23.95H164.368V23.35H160.378V29H164.488V28.4H161.098ZM169.923 28.03C169.513 28.31 169.043 28.43 168.513 28.43C167.143 28.43 166.153 27.47 166.153 26.17C166.153 24.87 167.143 23.91 168.483 23.91C169.153 23.91 169.723 24.12 170.193 24.59L170.653 24.12C170.143 23.56 169.393 23.28 168.473 23.28C166.733 23.28 165.433 24.52 165.433 26.17C165.433 27.83 166.733 29.06 168.503 29.06C169.303 29.06 170.083 28.81 170.613 28.34V26.17H169.923V28.03ZM177.177 29L175.797 27.08C176.607 26.8 177.087 26.18 177.087 25.3C177.087 24.06 176.177 23.35 174.727 23.35H172.527V29H173.247V27.24H174.727C174.857 27.24 174.987 27.23 175.117 27.22L176.397 29H177.177ZM174.687 26.65H173.247V23.95H174.687C175.777 23.95 176.367 24.43 176.367 25.3C176.367 26.16 175.777 26.65 174.687 26.65ZM182.947 29H183.667L181.057 23.35H180.347L177.737 29H178.457L179.117 27.54H182.287L182.947 29ZM179.377 26.96L180.707 24.03L182.027 26.96H179.377ZM190.783 29L190.773 23.35H190.153L187.763 27.4L185.363 23.35H184.743V29H185.433V24.71L187.593 28.29H187.923L190.083 24.65V29H190.783Z" fill="white"/>
<path d="M123.086 29.3581L122.792 33.4973C123.213 33.4973 123.395 33.3164 123.614 33.0992L125.588 31.2127L129.678 34.2081C130.428 34.6262 130.956 34.406 131.159 33.518L133.844 20.9376L133.844 20.9368C134.082 19.8279 133.443 19.3943 132.713 19.6663L116.931 25.7082C115.854 26.1263 115.871 26.7267 116.748 26.9987L120.783 28.2537L130.154 22.3897C130.596 22.0976 130.996 22.2592 130.667 22.5513L123.086 29.3581Z" fill="white"/>
</svg>
