<svg width="9" height="6" viewBox="0 0 9 6" fill="none" xmlns="http://www.w3.org/2000/svg">
<path d="M7.70448 5.1667H1.91152C1.68282 5.16696 1.4587 5.11622 1.26511 5.02036C1.07151 4.9245 0.916359 4.78743 0.817603 4.62503C0.701996 4.43234 0.657469 4.21795 0.689096 4.0063C0.720723 3.79465 0.827231 3.59425 0.996483 3.42795L3.89296 0.665445C4.00663 0.562187 4.14717 0.479374 4.30504 0.422617C4.46292 0.365861 4.63445 0.336487 4.808 0.336487C4.98156 0.336487 5.15309 0.365861 5.31096 0.422617C5.46884 0.479374 5.60937 0.562187 5.72304 0.665445L8.61952 3.42795C8.78877 3.59425 8.89528 3.79465 8.92691 4.0063C8.95854 4.21795 8.91401 4.43234 8.7984 4.62503C8.69964 4.78743 8.54449 4.9245 8.35089 5.02036C8.1573 5.11622 7.93318 5.16696 7.70448 5.1667Z" fill="#2B9B04"/>
</svg>
