<svg width="32" height="32" viewBox="0 0 32 32" fill="none" xmlns="http://www.w3.org/2000/svg">
<path d="M10 11.1667H16.5M19.9048 11.1667H21.1429" stroke="#9E9E9E" stroke-width="0.7"/>
<path d="M20.1738 11.1667C20.1738 12.17 19.3604 12.9833 18.3571 12.9833C17.3538 12.9833 16.5404 12.17 16.5404 11.1667C16.5404 10.1633 17.3538 9.35 18.3571 9.35C19.3604 9.35 20.1738 10.1633 20.1738 11.1667Z" stroke="#9E9E9E" stroke-width="0.7"/>
<path d="M10 19.8333H16.5M19.9048 19.8333H21.1429" stroke="#9E9E9E" stroke-width="0.7"/>
<path d="M20.1738 19.8333C20.1738 20.8366 19.3604 21.65 18.3571 21.65C17.3538 21.65 16.5404 20.8366 16.5404 19.8333C16.5404 18.83 17.3538 18.0167 18.3571 18.0167C19.3604 18.0167 20.1738 18.83 20.1738 19.8333Z" stroke="#9E9E9E" stroke-width="0.7"/>
<path d="M21.1431 15.5H14.6431M11.2383 15.5H10.0002" stroke="#9E9E9E" stroke-width="0.7"/>
<path d="M10.9693 15.5C10.9693 16.5033 11.7827 17.3167 12.786 17.3167C13.7893 17.3167 14.6026 16.5033 14.6026 15.5C14.6026 14.4967 13.7893 13.6833 12.786 13.6833C11.7827 13.6833 10.9693 14.4967 10.9693 15.5Z" stroke="#9E9E9E" stroke-width="0.7"/>
</svg>
