<svg width="26" height="26" viewBox="0 0 26 26" fill="none" xmlns="http://www.w3.org/2000/svg">
<path d="M7.60519 13.6526C7.15084 14.5457 7.66671 14.9726 8.84373 15.702C9.84434 16.3201 11.2267 16.5462 12.1146 16.6366L11.3705 17.3526C10.3157 18.3569 9.31513 19.3294 8.61544 20.0031C7.59704 20.9793 9.23656 22.5454 10.2542 21.59L13.0092 18.9328C14.064 19.9475 15.075 20.92 15.7643 21.5937C16.7827 22.5528 18.4214 21 17.4142 20.0068L14.6591 17.3563L13.9046 16.6403C14.8037 16.5499 16.1652 16.3105 17.154 15.7057L17.1533 15.7049C18.3303 14.9719 18.8462 14.5457 18.3985 13.6526C18.1279 13.1456 17.3986 12.7216 16.4276 13.4547C16.4276 13.4547 15.1165 14.459 13.0018 14.459C10.8865 14.459 9.57603 13.4547 9.57603 13.4547C8.60506 12.7179 7.87276 13.1456 7.60519 13.6526Z" fill="#F5B103"/>
<path d="M13 13.1048C15.5779 13.1048 17.6829 11.0903 17.6829 8.61024C17.6829 6.11982 15.5779 4.10526 13 4.10526C10.4214 4.10526 8.31641 6.11982 8.31641 8.61024C8.31641 11.0903 10.4214 13.1048 13 13.1048ZM13 6.38739C14.2667 6.38739 15.2999 7.38133 15.2999 8.61024C15.2999 9.82876 14.2667 10.8227 13 10.8227C11.7333 10.8227 10.7001 9.82876 10.7001 8.61024C10.6993 7.38059 11.7326 6.38739 13 6.38739Z" fill="#F5B103"/>
</svg>
