<svg width="14" height="14" viewBox="0 0 14 14" fill="none" xmlns="http://www.w3.org/2000/svg">
<path d="M1.29004 2V10V12C1.29004 12.8 1.95671 13 2.29004 13H12.29C13.09 13 13.29 12.3333 13.29 12V2C13.29 1.2 12.6234 1 12.29 1H2.29004C1.49004 1 1.29004 1.66667 1.29004 2Z" stroke="#9E9E9E" stroke-width="0.7"/>
<path d="M1.29004 10.5L3.79004 8.00001C4.12337 7.66668 4.99004 7.20001 5.79004 8.00001C6.59004 8.80001 6.79004 9.00001 6.79004 9.00001L7.29004 9.50001L9.79004 7.00001C10.1234 6.66668 10.99 6.20001 11.79 7.00001C12.59 7.80001 13.1234 8.33334 13.29 8.50001" stroke="#9E9E9E" stroke-width="0.7"/>
<path d="M8.94004 4.5C8.94004 5.41127 8.20131 6.15 7.29004 6.15C6.37877 6.15 5.64004 5.41127 5.64004 4.5C5.64004 3.58873 6.37877 2.85 7.29004 2.85C8.20131 2.85 8.94004 3.58873 8.94004 4.5Z" stroke="#9E9E9E" stroke-width="0.7"/>
</svg>
