<svg width="20" height="20" viewBox="0 0 20 20" fill="none" xmlns="http://www.w3.org/2000/svg">
<path d="M12.9833 4.99999C12.9833 6.64764 11.6476 7.98332 9.99999 7.98332V8.68332C12.0342 8.68332 13.6833 7.03424 13.6833 4.99999H12.9833ZM9.99999 7.98332C8.35234 7.98332 7.01666 6.64764 7.01666 4.99999H6.31666C6.31666 7.03424 7.96574 8.68332 9.99999 8.68332V7.98332ZM7.01666 4.99999C7.01666 3.35234 8.35234 2.01666 9.99999 2.01666V1.31666C7.96574 1.31666 6.31666 2.96574 6.31666 4.99999H7.01666ZM9.99999 2.01666C11.6476 2.01666 12.9833 3.35234 12.9833 4.99999H13.6833C13.6833 2.96574 12.0342 1.31666 9.99999 1.31666V2.01666ZM7.49999 11.1833H12.5V10.4833H7.49999V11.1833ZM12.5 17.15H7.49999V17.85H12.5V17.15ZM7.49999 17.15C5.85234 17.15 4.51666 15.8143 4.51666 14.1667H3.81666C3.81666 16.2009 5.46574 17.85 7.49999 17.85V17.15ZM15.4833 14.1667C15.4833 15.8143 14.1476 17.15 12.5 17.15V17.85C14.5342 17.85 16.1833 16.2009 16.1833 14.1667H15.4833ZM12.5 11.1833C14.1476 11.1833 15.4833 12.519 15.4833 14.1667H16.1833C16.1833 12.1324 14.5342 10.4833 12.5 10.4833V11.1833ZM7.49999 10.4833C5.46574 10.4833 3.81666 12.1324 3.81666 14.1667H4.51666C4.51666 12.519 5.85234 11.1833 7.49999 11.1833V10.4833Z" fill="#9E9E9E"/>
</svg>
