<svg width="9" height="6" viewBox="0 0 9 6" fill="none" xmlns="http://www.w3.org/2000/svg">
<path d="M7.67275 0.833365H1.87979C1.65109 0.833105 1.42697 0.883841 1.23337 0.979702C1.03978 1.07556 0.884621 1.21263 0.785864 1.37503C0.670258 1.56773 0.625731 1.78211 0.657358 1.99376C0.688984 2.20541 0.795493 2.40581 0.964745 2.57212L3.86123 5.33462C3.9749 5.43787 4.11543 5.52069 4.27331 5.57744C4.43118 5.6342 4.60271 5.66357 4.77627 5.66357C4.94982 5.66357 5.12135 5.6342 5.27923 5.57744C5.43711 5.52069 5.57764 5.43787 5.69131 5.33462L8.58779 2.57212C8.75704 2.40581 8.86355 2.20541 8.89518 1.99376C8.92681 1.78211 8.88228 1.56773 8.76667 1.37503C8.66791 1.21263 8.51276 1.07556 8.31916 0.979702C8.12557 0.883841 7.90145 0.833105 7.67275 0.833365Z" fill="#9B1604"/>
</svg>
