<svg width="79" height="80" viewBox="0 0 79 80" fill="none" xmlns="http://www.w3.org/2000/svg">
<rect opacity="0.5" y="0.237305" width="79" height="79" fill="#3E3E3E"/>
<path d="M53.7264 40.5336C52.7402 40.5336 51.9185 40.8596 51.2609 41.3484C51.2609 39.0669 49.4529 37.2744 47.1518 37.2744C46.1656 37.2744 45.1795 37.6003 44.3577 38.2521C43.7002 36.6225 42.2209 35.6447 40.5772 35.6447C39.591 35.6447 38.7693 35.9707 38.1118 36.4595V29.1262V27.4966C37.7831 25.7039 36.1394 24.2373 34.1671 24.2373C31.866 24.2373 30.0581 26.0299 30.0581 28.3113V42.815C26.7708 39.8817 23.1547 37.6002 20.8536 39.8817C17.5663 43.141 24.4697 49.4965 29.7293 59.1114C33.5097 65.7928 38.7694 68.2373 44.029 68.2373C51.7542 68.2373 58 62.0447 58 54.3855V44.6077C57.8355 42.3263 56.0275 40.5336 53.7264 40.5336ZM56.1919 48.1929V54.3856C56.1919 60.7412 50.6035 66.6078 43.8645 66.6078C37.6187 66.6078 34.0026 63.1857 31.0441 58.4597C24.7982 47.7041 20.196 42.8152 21.8396 41.0226C23.6476 39.23 28.0855 43.1411 31.5371 46.7263V28.3113C31.5371 27.0076 32.6876 25.8669 34.0026 25.8669C35.3176 25.8669 36.4682 27.0076 36.4682 28.3113V45.4224H38.1118V39.7187C38.1118 38.415 39.2623 37.2742 40.5772 37.2742C41.8922 37.2742 43.0428 38.415 43.0428 39.7187V43.7927H44.6864V41.3482C44.6864 40.0445 45.837 38.9037 47.1519 38.9037C48.4669 38.9037 49.6174 40.0445 49.6174 41.3482V45.4223H51.2611V44.6075C51.2611 43.3038 52.4117 42.163 53.7266 42.163C55.0416 42.163 56.1921 43.3038 56.1921 44.6075V48.1929H56.1919Z" fill="#F1F1F1"/>
<path d="M25 16.2373H41M25 16.2373L28.5 12.7373M25 16.2373L28.5 19.7373M41 16.2373L37.5 12.7373M41 16.2373L37.5 19.7373" stroke="#F1F1F1" stroke-width="1.8" stroke-linecap="round" stroke-linejoin="round"/>
</svg>
