<svg width="32" height="32" viewBox="0 0 32 32" fill="none" xmlns="http://www.w3.org/2000/svg">
<path d="M7 8H17.5M23 8H25" stroke="#3E3E3E" stroke-width="2"/>
<path d="M23 8C23 9.38071 21.8807 10.5 20.5 10.5C19.1193 10.5 18 9.38071 18 8C18 6.61929 19.1193 5.5 20.5 5.5C21.8807 5.5 23 6.61929 23 8Z" stroke="#3E3E3E" stroke-width="2"/>
<path d="M7 22H17.5M23 22H25" stroke="#3E3E3E" stroke-width="2"/>
<path d="M23 22C23 23.3807 21.8807 24.5 20.5 24.5C19.1193 24.5 18 23.3807 18 22C18 20.6193 19.1193 19.5 20.5 19.5C21.8807 19.5 23 20.6193 23 22Z" stroke="#3E3E3E" stroke-width="2"/>
<path d="M25 15H14.5M9 15H7" stroke="#3E3E3E" stroke-width="2"/>
<path d="M9 15C9 16.3807 10.1193 17.5 11.5 17.5C12.8807 17.5 14 16.3807 14 15C14 13.6193 12.8807 12.5 11.5 12.5C10.1193 12.5 9 13.6193 9 15Z" stroke="#3E3E3E" stroke-width="2"/>
</svg>
