<svg width="21" height="21" viewBox="0 0 21 21" fill="none" xmlns="http://www.w3.org/2000/svg">
<g clip-path="url(#clip0_1732_2386)">
<path d="M6.56331 19.0356C14.4883 19.0356 18.822 12.47 18.822 6.77685C18.822 6.59035 18.8182 6.40466 18.8099 6.21993C19.651 5.61174 20.3822 4.85279 20.959 3.9889C20.1871 4.33209 19.3562 4.56296 18.4848 4.66726C19.3743 4.13374 20.0573 3.29003 20.3794 2.28419C19.5469 2.77766 18.625 3.13622 17.6435 3.32993C16.8573 2.49247 15.7378 1.96872 14.4984 1.96872C12.1192 1.96872 10.1897 3.89822 10.1897 6.27665C10.1897 6.61487 10.2275 6.94363 10.3013 7.2591C6.72049 7.07886 3.54513 5.36453 1.42033 2.75747C1.05039 3.39417 0.836977 4.1339 0.836977 4.92313C0.836977 6.4178 1.59769 7.73751 2.7543 8.50944C2.04742 8.48765 1.38348 8.29363 0.80301 7.97063C0.80237 7.98873 0.80237 8.00636 0.80237 8.02558C0.80237 10.1123 2.28743 11.8545 4.25906 12.2492C3.89697 12.3478 3.51597 12.4008 3.12296 12.4008C2.84578 12.4008 2.57566 12.3736 2.31306 12.3231C2.86165 14.035 4.45229 15.2807 6.33805 15.3156C4.8634 16.4714 3.00568 17.1599 0.98678 17.1599C0.639428 17.1599 0.296242 17.14 -0.0410156 17.1003C1.86573 18.3224 4.13009 19.0357 6.56347 19.0357" fill="#2FB4FF"/>
</g>
<defs>
<clipPath id="clip0_1732_2386">
<rect width="21" height="21" fill="white"/>
</clipPath>
</defs>
</svg>
